<svg xmlns="http://www.w3.org/2000/svg" viewBox="0 0 1024 1024" role="img" aria-label="Plauder">
  <!-- Dark squircle background with a subtle green-tinted edge -->
  <defs>
    <radialGradient id="bg" cx="0.5" cy="0.5" r="0.7">
      <stop offset="0%" stop-color="#111827"/>
      <stop offset="100%" stop-color="#000000"/>
    </radialGradient>
  </defs>
  <rect x="0" y="0" width="1024" height="1024" rx="224" fill="url(#bg)"/>

  <!-- Heroicons "microphone" solid, scaled to fill the canvas. Green accent
       to match the original dark-green tray feel the user liked. -->
  <g transform="translate(212 192) scale(25)" fill="#22C55E">
    <path d="M8.25 4.5a3.75 3.75 0 117.5 0v8.25a3.75 3.75 0 11-7.5 0V4.5z"/>
    <path d="M6 10.5a.75.75 0 01.75.75v1.5a5.25 5.25 0 1010.5 0v-1.5a.75.75 0 011.5 0v1.5a6.751 6.751 0 01-6 6.709v2.291h3a.75.75 0 010 1.5h-7.5a.75.75 0 010-1.5h3v-2.291a6.751 6.751 0 01-6-6.709v-1.5A.75.75 0 016 10.5z"/>
  </g>
</svg>
